<svg xmlns="http://www.w3.org/2000/svg" viewBox="0 0 64 64" role="img" aria-label="SkillSphere">
  <defs>
    <linearGradient id="skillsphereGradient" x1="8" y1="8" x2="56" y2="56" gradientUnits="userSpaceOnUse">
      <stop offset="0" stop-color="#2EC4B6" />
      <stop offset="1" stop-color="#0F172A" />
    </linearGradient>
  </defs>
  <rect width="64" height="64" rx="18" fill="url(#skillsphereGradient)" />
  <circle cx="32" cy="32" r="18" fill="rgba(255,255,255,0.08)" />
  <path
    d="M40.5 22.8c-2.5-2-5.2-3-8.9-3-4.9 0-8.2 2.6-8.2 6.3 0 3.5 2 5.4 7.7 6.9 4 1 5.3 2 5.3 3.9 0 2-1.9 3.3-4.9 3.3-3 0-5.7-1.2-8.3-4l-3.9 4.6c3.1 3.3 7.2 5 12.1 5 6.4 0 10.9-3.2 10.9-8.5 0-4.7-2.6-7.2-9.6-8.9-3.5-.8-4.2-1.5-4.2-3 0-1.6 1.5-2.8 4.1-2.8 2.3 0 4.4.8 6.6 2.8z"
    fill="#FFFFFF"
  />
</svg>
